<?xml version="1.0" encoding="UTF-8" standalone="no"?><svg xmlns="http://www.w3.org/2000/svg" xmlns:xlink="http://www.w3.org/1999/xlink" contentStyleType="text/css" height="137.2px" preserveAspectRatio="none" style="width:866px;height:137px;background:#FFFFFF;" version="1.1" viewBox="0 0 866 137" width="866.4px" zoomAndPan="magnify"><defs/><g><!--MD5=[0a4b844257c76b4253d3b1bb78ee68ed]
cluster customExceptions--><g id="cluster_customExceptions"><path d="M467.4,2.4 L519.8,2.4 A1.5,1.5 0 0 1 520.8,3.4 L523.6,11.3953 L558.2,11.3953 A1,1 0 0 1 559.2,12.3953 L559.2,41 A1,1 0 0 1 558.2,42 L467.4,42 A1,1 0 0 1 466.4,41 L466.4,3.4 A1,1 0 0 1 467.4,2.4 " style="stroke:#000000;stroke-width:0.6000000000000001;fill:none;"/><line style="stroke:#000000;stroke-width:0.6000000000000001;fill:none;" x1="466.4" x2="523.6" y1="11.3953" y2="11.3953"/><text fill="#000000" font-family="sans-serif" font-size="5.6" font-weight="bold" lengthAdjust="spacing" textLength="52" x="468" y="8.6141">customExceptions</text></g><!--MD5=[1213c0bc012a738571df56c10dce972a]
cluster dataStructures--><g id="cluster_dataStructures"><path d="M3.4,2.4 L45.4,2.4 A1.5,1.5 0 0 1 46.4,3.4 L49.2,11.3953 L296.6,11.3953 A1,1 0 0 1 297.6,12.3953 L297.6,133.4 A1,1 0 0 1 296.6,134.4 L3.4,134.4 A1,1 0 0 1 2.4,133.4 L2.4,3.4 A1,1 0 0 1 3.4,2.4 " style="stroke:#000000;stroke-width:0.6000000000000001;fill:none;"/><line style="stroke:#000000;stroke-width:0.6000000000000001;fill:none;" x1="2.4" x2="49.2" y1="11.3953" y2="11.3953"/><text fill="#000000" font-family="sans-serif" font-size="5.6" font-weight="bold" lengthAdjust="spacing" textLength="41.6" x="4" y="8.6141">dataStructures</text></g><!--MD5=[424e254f65b2f55eda30428135aca23c]
cluster fileReaderUtils--><g id="cluster_fileReaderUtils"><path d="M649.4,2.4 L692.6,2.4 A1.5,1.5 0 0 1 693.6,3.4 L696.4,11.3953 L783,11.3953 A1,1 0 0 1 784,12.3953 L784,41 A1,1 0 0 1 783,42 L649.4,42 A1,1 0 0 1 648.4,41 L648.4,3.4 A1,1 0 0 1 649.4,2.4 " style="stroke:#000000;stroke-width:0.6000000000000001;fill:none;"/><line style="stroke:#000000;stroke-width:0.6000000000000001;fill:none;" x1="648.4" x2="696.4" y1="11.3953" y2="11.3953"/><text fill="#000000" font-family="sans-serif" font-size="5.6" font-weight="bold" lengthAdjust="spacing" textLength="42.8" x="650" y="8.6141">fileReaderUtils</text></g><!--MD5=[5d4cd377749310b66bf14896f5cd8d9b]
cluster model--><g id="cluster_model"><path d="M308.2,51.6 L326.6,51.6 A1.5,1.5 0 0 1 327.6,52.6 L330.4,60.5953 L862.6,60.5953 A1,1 0 0 1 863.6,61.5953 L863.6,133.4 A1,1 0 0 1 862.6,134.4 L308.2,134.4 A1,1 0 0 1 307.2,133.4 L307.2,52.6 A1,1 0 0 1 308.2,51.6 " style="stroke:#000000;stroke-width:0.6000000000000001;fill:none;"/><line style="stroke:#000000;stroke-width:0.6000000000000001;fill:none;" x1="307.2" x2="330.4" y1="60.5953" y2="60.5953"/><text fill="#000000" font-family="sans-serif" font-size="5.6" font-weight="bold" lengthAdjust="spacing" textLength="18" x="308.8" y="57.8141">model</text></g><!--MD5=[32d645f02507ba9db6f56a4177685ac8]
class AreaNotFoundException--><g id="elem_AreaNotFoundException"><rect codeLine="5" fill="#F1F1F1" height="19.2" id="AreaNotFoundException" rx="1" ry="1" style="stroke:#181818;stroke-width:0.20000000000000004;" width="80" x="472.8" y="16.4"/><ellipse cx="478.8" cy="22.8" fill="#ADD1B2" rx="4.4" ry="4.4" style="stroke:#181818;stroke-width:0.4000000000000001;"/><path d="M479.7893,25.2572 Q479.5568,25.3768 479.3012,25.4365 Q479.0455,25.4963 478.7633,25.4963 Q477.7605,25.4963 477.2326,24.8355 Q476.7047,24.1748 476.7047,22.9264 Q476.7047,21.6746 477.2326,21.0139 Q477.7605,20.3531 478.7633,20.3531 Q479.0455,20.3531 479.3045,20.4129 Q479.5635,20.4727 479.7893,20.5922 L479.7893,21.6813 Q479.5369,21.4488 479.2995,21.3409 Q479.0621,21.233 478.8098,21.233 Q478.2719,21.233 477.9979,21.6597 Q477.724,22.0863 477.724,22.9264 Q477.724,23.7631 477.9979,24.1897 Q478.2719,24.6164 478.8098,24.6164 Q479.0621,24.6164 479.2995,24.5085 Q479.5369,24.4006 479.7893,24.1682 Z " fill="#000000"/><text fill="#000000" font-family="sans-serif" font-size="5.6" lengthAdjust="spacing" textLength="67.2" x="484.4" y="24.9164">AreaNotFoundException</text><line style="stroke:#181818;stroke-width:0.20000000000000004;" x1="473.2" x2="552.4" y1="29.2" y2="29.2"/><line style="stroke:#181818;stroke-width:0.20000000000000004;" x1="473.2" x2="552.4" y1="32.4" y2="32.4"/></g><!--MD5=[76c64cf519b79fd01de2fb03066f8d81]
class AVL--><g id="elem_AVL"><rect codeLine="9" fill="#F1F1F1" height="19.2" id="AVL" rx="1" ry="1" style="stroke:#181818;stroke-width:0.20000000000000004;" width="23.2" x="239.6" y="108.8"/><ellipse cx="245.6" cy="115.2" fill="#ADD1B2" rx="4.4" ry="4.4" style="stroke:#181818;stroke-width:0.4000000000000001;"/><path d="M246.5893,117.6572 Q246.3568,117.7768 246.1012,117.8365 Q245.8455,117.8963 245.5633,117.8963 Q244.5605,117.8963 244.0326,117.2355 Q243.5047,116.5748 243.5047,115.3264 Q243.5047,114.0746 244.0326,113.4139 Q244.5605,112.7531 245.5633,112.7531 Q245.8455,112.7531 246.1045,112.8129 Q246.3635,112.8727 246.5893,112.9922 L246.5893,114.0813 Q246.3369,113.8488 246.0995,113.7409 Q245.8621,113.633 245.6098,113.633 Q245.0719,113.633 244.7979,114.0597 Q244.524,114.4863 244.524,115.3264 Q244.524,116.1631 244.7979,116.5897 Q245.0719,117.0164 245.6098,117.0164 Q245.8621,117.0164 246.0995,116.9085 Q246.3369,116.8006 246.5893,116.5682 Z " fill="#000000"/><text fill="#000000" font-family="sans-serif" font-size="5.6" lengthAdjust="spacing" textLength="10.4" x="251.2" y="117.3164">AVL</text><line style="stroke:#181818;stroke-width:0.20000000000000004;" x1="240" x2="262.4" y1="121.6" y2="121.6"/><line style="stroke:#181818;stroke-width:0.20000000000000004;" x1="240" x2="262.4" y1="124.8" y2="124.8"/></g><!--MD5=[b4a9ab6cffd58937cfea07eb2954e1bd]
class BST--><g id="elem_BST"><rect codeLine="45" fill="#F1F1F1" height="19.2" id="BST" rx="1" ry="1" style="stroke:#181818;stroke-width:0.20000000000000004;" width="22.8" x="220.2" y="65.6"/><ellipse cx="226.2" cy="72" fill="#ADD1B2" rx="4.4" ry="4.4" style="stroke:#181818;stroke-width:0.4000000000000001;"/><path d="M227.1893,74.4572 Q226.9568,74.5768 226.7012,74.6365 Q226.4455,74.6963 226.1633,74.6963 Q225.1605,74.6963 224.6326,74.0355 Q224.1047,73.3748 224.1047,72.1264 Q224.1047,70.8746 224.6326,70.2139 Q225.1605,69.5531 226.1633,69.5531 Q226.4455,69.5531 226.7045,69.6129 Q226.9635,69.6727 227.1893,69.7922 L227.1893,70.8813 Q226.9369,70.6488 226.6995,70.5409 Q226.4621,70.433 226.2098,70.433 Q225.6719,70.433 225.3979,70.8597 Q225.124,71.2863 225.124,72.1264 Q225.124,72.9631 225.3979,73.3897 Q225.6719,73.8164 226.2098,73.8164 Q226.4621,73.8164 226.6995,73.7085 Q226.9369,73.6006 227.1893,73.3682 Z " fill="#000000"/><text fill="#000000" font-family="sans-serif" font-size="5.6" lengthAdjust="spacing" textLength="10" x="231.8" y="74.1164">BST</text><line style="stroke:#181818;stroke-width:0.20000000000000004;" x1="220.6" x2="242.6" y1="78.4" y2="78.4"/><line style="stroke:#181818;stroke-width:0.20000000000000004;" x1="220.6" x2="242.6" y1="81.6" y2="81.6"/></g><!--MD5=[3fee75583bb7a64f68d843a3c9534ab3]
class Node--><g id="elem_Node"><rect codeLine="11" fill="#F1F1F1" height="19.2" id="Node" rx="1" ry="1" style="stroke:#181818;stroke-width:0.20000000000000004;" width="27.2" x="198.4" y="108.8"/><ellipse cx="204.4" cy="115.2" fill="#ADD1B2" rx="4.4" ry="4.4" style="stroke:#181818;stroke-width:0.4000000000000001;"/><path d="M205.3893,117.6572 Q205.1568,117.7768 204.9012,117.8365 Q204.6455,117.8963 204.3633,117.8963 Q203.3605,117.8963 202.8326,117.2355 Q202.3047,116.5748 202.3047,115.3264 Q202.3047,114.0746 202.8326,113.4139 Q203.3605,112.7531 204.3633,112.7531 Q204.6455,112.7531 204.9045,112.8129 Q205.1635,112.8727 205.3893,112.9922 L205.3893,114.0813 Q205.1369,113.8488 204.8995,113.7409 Q204.6621,113.633 204.4098,113.633 Q203.8719,113.633 203.5979,114.0597 Q203.324,114.4863 203.324,115.3264 Q203.324,116.1631 203.5979,116.5897 Q203.8719,117.0164 204.4098,117.0164 Q204.6621,117.0164 204.8995,116.9085 Q205.1369,116.8006 205.3893,116.5682 Z " fill="#000000"/><text fill="#000000" font-family="sans-serif" font-size="5.6" lengthAdjust="spacing" textLength="14.4" x="210" y="117.3164">Node</text><line style="stroke:#181818;stroke-width:0.20000000000000004;" x1="198.8" x2="225.2" y1="121.6" y2="121.6"/><line style="stroke:#181818;stroke-width:0.20000000000000004;" x1="198.8" x2="225.2" y1="124.8" y2="124.8"/></g><!--MD5=[3d48caa4ac00011ece90c3fd6d5fdec0]
class BSTInterface--><g id="elem_BSTInterface"><rect codeLine="12" fill="#F1F1F1" height="19.2" id="BSTInterface" rx="1" ry="1" style="stroke:#181818;stroke-width:0.20000000000000004;" width="46.8" x="167.8" y="16.4"/><ellipse cx="173.8" cy="22.8" fill="#B4A7E5" rx="4.4" ry="4.4" style="stroke:#181818;stroke-width:0.4000000000000001;"/><path d="M172.3711,21.3061 L172.3711,20.4428 L175.3229,20.4428 L175.3229,21.3061 L174.3367,21.3061 L174.3367,24.5367 L175.3229,24.5367 L175.3229,25.4 L172.3711,25.4 L172.3711,24.5367 L173.3572,24.5367 L173.3572,21.3061 Z " fill="#000000"/><text fill="#000000" font-family="sans-serif" font-size="5.6" font-style="italic" lengthAdjust="spacing" textLength="34" x="179.4" y="24.9164">BSTInterface</text><line style="stroke:#181818;stroke-width:0.20000000000000004;" x1="168.2" x2="214.2" y1="29.2" y2="29.2"/><line style="stroke:#181818;stroke-width:0.20000000000000004;" x1="168.2" x2="214.2" y1="32.4" y2="32.4"/></g><!--MD5=[19b64f9e1764b7e751e41770d38b14f6]
class DataTypeInterface--><g id="elem_DataTypeInterface"><rect codeLine="13" fill="#F1F1F1" height="19.2" id="DataTypeInterface" rx="1" ry="1" style="stroke:#181818;stroke-width:0.20000000000000004;" width="62.4" x="228.8" y="16.4"/><ellipse cx="234.8" cy="22.8" fill="#B4A7E5" rx="4.4" ry="4.4" style="stroke:#181818;stroke-width:0.4000000000000001;"/><path d="M233.3711,21.3061 L233.3711,20.4428 L236.3229,20.4428 L236.3229,21.3061 L235.3367,21.3061 L235.3367,24.5367 L236.3229,24.5367 L236.3229,25.4 L233.3711,25.4 L233.3711,24.5367 L234.3572,24.5367 L234.3572,21.3061 Z " fill="#000000"/><text fill="#000000" font-family="sans-serif" font-size="5.6" font-style="italic" lengthAdjust="spacing" textLength="49.6" x="240.4" y="24.9164">DataTypeInterface</text><line style="stroke:#181818;stroke-width:0.20000000000000004;" x1="229.2" x2="290.8" y1="29.2" y2="29.2"/><line style="stroke:#181818;stroke-width:0.20000000000000004;" x1="229.2" x2="290.8" y1="32.4" y2="32.4"/></g><!--MD5=[220f5f32351d35cc72380e3951491ed2]
class Pair--><g id="elem_Pair"><rect codeLine="14" fill="#F1F1F1" height="19.2" id="Pair" rx="1" ry="1" style="stroke:#181818;stroke-width:0.20000000000000004;" width="23.2" x="130.4" y="16.4"/><ellipse cx="136.4" cy="22.8" fill="#ADD1B2" rx="4.4" ry="4.4" style="stroke:#181818;stroke-width:0.4000000000000001;"/><path d="M137.3893,25.2572 Q137.1568,25.3768 136.9012,25.4365 Q136.6455,25.4963 136.3633,25.4963 Q135.3605,25.4963 134.8326,24.8355 Q134.3047,24.1748 134.3047,22.9264 Q134.3047,21.6746 134.8326,21.0139 Q135.3605,20.3531 136.3633,20.3531 Q136.6455,20.3531 136.9045,20.4129 Q137.1635,20.4727 137.3893,20.5922 L137.3893,21.6813 Q137.1369,21.4488 136.8995,21.3409 Q136.6621,21.233 136.4098,21.233 Q135.8719,21.233 135.5979,21.6597 Q135.324,22.0863 135.324,22.9264 Q135.324,23.7631 135.5979,24.1897 Q135.8719,24.6164 136.4098,24.6164 Q136.6621,24.6164 136.8995,24.5085 Q137.1369,24.4006 137.3893,24.1682 Z " fill="#000000"/><text fill="#000000" font-family="sans-serif" font-size="5.6" lengthAdjust="spacing" textLength="10.4" x="142" y="24.9164">Pair</text><line style="stroke:#181818;stroke-width:0.20000000000000004;" x1="130.8" x2="153.2" y1="29.2" y2="29.2"/><line style="stroke:#181818;stroke-width:0.20000000000000004;" x1="130.8" x2="153.2" y1="32.4" y2="32.4"/></g><!--MD5=[f3ad87c4a4bfbd75f9ef5fbc3f5ad12e]
class Three--><g id="elem_Three"><rect codeLine="15" fill="#F1F1F1" height="19.2" id="Three" rx="1" ry="1" style="stroke:#181818;stroke-width:0.20000000000000004;" width="28.8" x="87.6" y="16.4"/><ellipse cx="93.6" cy="22.8" fill="#ADD1B2" rx="4.4" ry="4.4" style="stroke:#181818;stroke-width:0.4000000000000001;"/><path d="M94.5893,25.2572 Q94.3568,25.3768 94.1012,25.4365 Q93.8455,25.4963 93.5633,25.4963 Q92.5605,25.4963 92.0326,24.8355 Q91.5047,24.1748 91.5047,22.9264 Q91.5047,21.6746 92.0326,21.0139 Q92.5605,20.3531 93.5633,20.3531 Q93.8455,20.3531 94.1045,20.4129 Q94.3635,20.4727 94.5893,20.5922 L94.5893,21.6813 Q94.3369,21.4488 94.0995,21.3409 Q93.8621,21.233 93.6098,21.233 Q93.0719,21.233 92.7979,21.6597 Q92.524,22.0863 92.524,22.9264 Q92.524,23.7631 92.7979,24.1897 Q93.0719,24.6164 93.6098,24.6164 Q93.8621,24.6164 94.0995,24.5085 Q94.3369,24.4006 94.5893,24.1682 Z " fill="#000000"/><text fill="#000000" font-family="sans-serif" font-size="5.6" lengthAdjust="spacing" textLength="16" x="99.2" y="24.9164">Three</text><line style="stroke:#181818;stroke-width:0.20000000000000004;" x1="88" x2="116" y1="29.2" y2="29.2"/><line style="stroke:#181818;stroke-width:0.20000000000000004;" x1="88" x2="116" y1="32.4" y2="32.4"/></g><!--MD5=[64560850dd490a906780bb91c20343e1]
class MiddleComparator--><g id="elem_MiddleComparator"><rect codeLine="16" fill="#F1F1F1" height="19.2" id="MiddleComparator" rx="1" ry="1" style="stroke:#181818;stroke-width:0.20000000000000004;" width="64.4" x="67.4" y="65.6"/><ellipse cx="73.4" cy="72" fill="#ADD1B2" rx="4.4" ry="4.4" style="stroke:#181818;stroke-width:0.4000000000000001;"/><path d="M74.3893,74.4572 Q74.1568,74.5768 73.9012,74.6365 Q73.6455,74.6963 73.3633,74.6963 Q72.3605,74.6963 71.8326,74.0355 Q71.3047,73.3748 71.3047,72.1264 Q71.3047,70.8746 71.8326,70.2139 Q72.3605,69.5531 73.3633,69.5531 Q73.6455,69.5531 73.9045,69.6129 Q74.1635,69.6727 74.3893,69.7922 L74.3893,70.8813 Q74.1369,70.6488 73.8995,70.5409 Q73.6621,70.433 73.4098,70.433 Q72.8719,70.433 72.5979,70.8597 Q72.324,71.2863 72.324,72.1264 Q72.324,72.9631 72.5979,73.3897 Q72.8719,73.8164 73.4098,73.8164 Q73.6621,73.8164 73.8995,73.7085 Q74.1369,73.6006 74.3893,73.3682 Z " fill="#000000"/><text fill="#000000" font-family="sans-serif" font-size="5.6" lengthAdjust="spacing" textLength="51.6" x="79" y="74.1164">MiddleComparator</text><line style="stroke:#181818;stroke-width:0.20000000000000004;" x1="67.8" x2="131.4" y1="78.4" y2="78.4"/><line style="stroke:#181818;stroke-width:0.20000000000000004;" x1="67.8" x2="131.4" y1="81.6" y2="81.6"/></g><!--MD5=[f535da9b5a6d274632ff0b7d30f98242]
class RightComparator--><g id="elem_RightComparator"><rect codeLine="17" fill="#F1F1F1" height="19.2" id="RightComparator" rx="1" ry="1" style="stroke:#181818;stroke-width:0.20000000000000004;" width="60.4" x="145.8" y="65.6"/><ellipse cx="151.8" cy="72" fill="#ADD1B2" rx="4.4" ry="4.4" style="stroke:#181818;stroke-width:0.4000000000000001;"/><path d="M152.7893,74.4572 Q152.5568,74.5768 152.3012,74.6365 Q152.0455,74.6963 151.7633,74.6963 Q150.7605,74.6963 150.2326,74.0355 Q149.7047,73.3748 149.7047,72.1264 Q149.7047,70.8746 150.2326,70.2139 Q150.7605,69.5531 151.7633,69.5531 Q152.0455,69.5531 152.3045,69.6129 Q152.5635,69.6727 152.7893,69.7922 L152.7893,70.8813 Q152.5369,70.6488 152.2995,70.5409 Q152.0621,70.433 151.8098,70.433 Q151.2719,70.433 150.9979,70.8597 Q150.724,71.2863 150.724,72.1264 Q150.724,72.9631 150.9979,73.3897 Q151.2719,73.8164 151.8098,73.8164 Q152.0621,73.8164 152.2995,73.7085 Q152.5369,73.6006 152.7893,73.3682 Z " fill="#000000"/><text fill="#000000" font-family="sans-serif" font-size="5.6" lengthAdjust="spacing" textLength="47.6" x="157.4" y="74.1164">RightComparator</text><line style="stroke:#181818;stroke-width:0.20000000000000004;" x1="146.2" x2="205.8" y1="78.4" y2="78.4"/><line style="stroke:#181818;stroke-width:0.20000000000000004;" x1="146.2" x2="205.8" y1="81.6" y2="81.6"/></g><!--MD5=[8ea21eb34d8c2cb9ca2346ccb811dfc2]
class TwoDTree--><g id="elem_TwoDTree"><rect codeLine="46" fill="#F1F1F1" height="19.2" id="TwoDTree" rx="1" ry="1" style="stroke:#181818;stroke-width:0.20000000000000004;" width="40.8" x="12.4" y="65.6"/><ellipse cx="18.4" cy="72" fill="#ADD1B2" rx="4.4" ry="4.4" style="stroke:#181818;stroke-width:0.4000000000000001;"/><path d="M19.3893,74.4572 Q19.1568,74.5768 18.9012,74.6365 Q18.6455,74.6963 18.3633,74.6963 Q17.3605,74.6963 16.8326,74.0355 Q16.3047,73.3748 16.3047,72.1264 Q16.3047,70.8746 16.8326,70.2139 Q17.3605,69.5531 18.3633,69.5531 Q18.6455,69.5531 18.9045,69.6129 Q19.1635,69.6727 19.3893,69.7922 L19.3893,70.8813 Q19.1369,70.6488 18.8995,70.5409 Q18.6621,70.433 18.4098,70.433 Q17.8719,70.433 17.5979,70.8597 Q17.324,71.2863 17.324,72.1264 Q17.324,72.9631 17.5979,73.3897 Q17.8719,73.8164 18.4098,73.8164 Q18.6621,73.8164 18.8995,73.7085 Q19.1369,73.6006 19.3893,73.3682 Z " fill="#000000"/><text fill="#000000" font-family="sans-serif" font-size="5.6" lengthAdjust="spacing" textLength="28" x="24" y="74.1164">TwoDTree</text><line style="stroke:#181818;stroke-width:0.20000000000000004;" x1="12.8" x2="52.8" y1="78.4" y2="78.4"/><line style="stroke:#181818;stroke-width:0.20000000000000004;" x1="12.8" x2="52.8" y1="81.6" y2="81.6"/></g><!--MD5=[828fe3b12dc47cf4189b8046d565e001]
class TwoDNode--><g id="elem_TwoDNode"><rect codeLine="19" fill="#F1F1F1" height="19.2" id="TwoDNode" rx="1" ry="1" style="stroke:#181818;stroke-width:0.20000000000000004;" width="42.8" x="11.4" y="108.8"/><ellipse cx="17.4" cy="115.2" fill="#ADD1B2" rx="4.4" ry="4.4" style="stroke:#181818;stroke-width:0.4000000000000001;"/><path d="M18.3893,117.6572 Q18.1568,117.7768 17.9012,117.8365 Q17.6455,117.8963 17.3633,117.8963 Q16.3605,117.8963 15.8326,117.2355 Q15.3047,116.5748 15.3047,115.3264 Q15.3047,114.0746 15.8326,113.4139 Q16.3605,112.7531 17.3633,112.7531 Q17.6455,112.7531 17.9045,112.8129 Q18.1635,112.8727 18.3893,112.9922 L18.3893,114.0813 Q18.1369,113.8488 17.8995,113.7409 Q17.6621,113.633 17.4098,113.633 Q16.8719,113.633 16.5979,114.0597 Q16.324,114.4863 16.324,115.3264 Q16.324,116.1631 16.5979,116.5897 Q16.8719,117.0164 17.4098,117.0164 Q17.6621,117.0164 17.8995,116.9085 Q18.1369,116.8006 18.3893,116.5682 Z " fill="#000000"/><text fill="#000000" font-family="sans-serif" font-size="5.6" lengthAdjust="spacing" textLength="30" x="23" y="117.3164">TwoDNode</text><line style="stroke:#181818;stroke-width:0.20000000000000004;" x1="11.8" x2="53.8" y1="121.6" y2="121.6"/><line style="stroke:#181818;stroke-width:0.20000000000000004;" x1="11.8" x2="53.8" y1="124.8" y2="124.8"/></g><!--MD5=[870339c0ec8cc8e495a94c60722fec33]
class TwoDTreeInterface--><g id="elem_TwoDTreeInterface"><rect codeLine="20" fill="#F1F1F1" height="19.2" id="TwoDTreeInterface" rx="1" ry="1" style="stroke:#181818;stroke-width:0.20000000000000004;" width="64.8" x="8.8" y="16.4"/><ellipse cx="14.8" cy="22.8" fill="#B4A7E5" rx="4.4" ry="4.4" style="stroke:#181818;stroke-width:0.4000000000000001;"/><path d="M13.3711,21.3061 L13.3711,20.4428 L16.3229,20.4428 L16.3229,21.3061 L15.3367,21.3061 L15.3367,24.5367 L16.3229,24.5367 L16.3229,25.4 L13.3711,25.4 L13.3711,24.5367 L14.3572,24.5367 L14.3572,21.3061 Z " fill="#000000"/><text fill="#000000" font-family="sans-serif" font-size="5.6" font-style="italic" lengthAdjust="spacing" textLength="52" x="20.4" y="24.9164">TwoDTreeInterface</text><line style="stroke:#181818;stroke-width:0.20000000000000004;" x1="9.2" x2="73.2" y1="29.2" y2="29.2"/><line style="stroke:#181818;stroke-width:0.20000000000000004;" x1="9.2" x2="73.2" y1="32.4" y2="32.4"/></g><!--MD5=[398a7dac6b0bbf79e3dd9dc188b5273b]
class FastReader--><g id="elem_FastReader"><rect codeLine="24" fill="#F1F1F1" height="19.2" id="FastReader" rx="1" ry="1" style="stroke:#181818;stroke-width:0.20000000000000004;" width="43.2" x="734.4" y="16.4"/><ellipse cx="740.4" cy="22.8" fill="#ADD1B2" rx="4.4" ry="4.4" style="stroke:#181818;stroke-width:0.4000000000000001;"/><path d="M741.3893,25.2572 Q741.1568,25.3768 740.9012,25.4365 Q740.6455,25.4963 740.3633,25.4963 Q739.3605,25.4963 738.8326,24.8355 Q738.3047,24.1748 738.3047,22.9264 Q738.3047,21.6746 738.8326,21.0139 Q739.3605,20.3531 740.3633,20.3531 Q740.6455,20.3531 740.9045,20.4129 Q741.1635,20.4727 741.3893,20.5922 L741.3893,21.6813 Q741.1369,21.4488 740.8995,21.3409 Q740.6621,21.233 740.4098,21.233 Q739.8719,21.233 739.5979,21.6597 Q739.324,22.0863 739.324,22.9264 Q739.324,23.7631 739.5979,24.1897 Q739.8719,24.6164 740.4098,24.6164 Q740.6621,24.6164 740.8995,24.5085 Q741.1369,24.4006 741.3893,24.1682 Z " fill="#000000"/><text fill="#000000" font-family="sans-serif" font-size="5.6" lengthAdjust="spacing" textLength="30.4" x="746" y="24.9164">FastReader</text><line style="stroke:#181818;stroke-width:0.20000000000000004;" x1="734.8" x2="777.2" y1="29.2" y2="29.2"/><line style="stroke:#181818;stroke-width:0.20000000000000004;" x1="734.8" x2="777.2" y1="32.4" y2="32.4"/></g><!--MD5=[04ea6a60b0acff3663b3f109d90db1c0]
class ReadDataFromFiles--><g id="elem_ReadDataFromFiles"><rect codeLine="25" fill="#F1F1F1" height="19.2" id="ReadDataFromFiles" rx="1" ry="1" style="stroke:#181818;stroke-width:0.20000000000000004;" width="65.6" x="654.8" y="16.4"/><ellipse cx="660.8" cy="22.8" fill="#ADD1B2" rx="4.4" ry="4.4" style="stroke:#181818;stroke-width:0.4000000000000001;"/><path d="M661.7893,25.2572 Q661.5568,25.3768 661.3012,25.4365 Q661.0455,25.4963 660.7633,25.4963 Q659.7605,25.4963 659.2326,24.8355 Q658.7047,24.1748 658.7047,22.9264 Q658.7047,21.6746 659.2326,21.0139 Q659.7605,20.3531 660.7633,20.3531 Q661.0455,20.3531 661.3045,20.4129 Q661.5635,20.4727 661.7893,20.5922 L661.7893,21.6813 Q661.5369,21.4488 661.2995,21.3409 Q661.0621,21.233 660.8098,21.233 Q660.2719,21.233 659.9979,21.6597 Q659.724,22.0863 659.724,22.9264 Q659.724,23.7631 659.9979,24.1897 Q660.2719,24.6164 660.8098,24.6164 Q661.0621,24.6164 661.2995,24.5085 Q661.5369,24.4006 661.7893,24.1682 Z " fill="#000000"/><text fill="#000000" font-family="sans-serif" font-size="5.6" lengthAdjust="spacing" textLength="52.8" x="666.4" y="24.9164">ReadDataFromFiles</text><line style="stroke:#181818;stroke-width:0.20000000000000004;" x1="655.2" x2="720" y1="29.2" y2="29.2"/><line style="stroke:#181818;stroke-width:0.20000000000000004;" x1="655.2" x2="720" y1="32.4" y2="32.4"/></g><!--MD5=[7cfcec95ce8c7b3cc21f2a5540b61e10]
class Area--><g id="elem_Area"><rect codeLine="62" fill="#F1F1F1" height="19.2" id="Area" rx="1" ry="1" style="stroke:#181818;stroke-width:0.20000000000000004;" width="25.6" x="641.2" y="65.6"/><ellipse cx="647.2" cy="72" fill="#ADD1B2" rx="4.4" ry="4.4" style="stroke:#181818;stroke-width:0.4000000000000001;"/><path d="M648.1893,74.4572 Q647.9568,74.5768 647.7012,74.6365 Q647.4455,74.6963 647.1633,74.6963 Q646.1605,74.6963 645.6326,74.0355 Q645.1047,73.3748 645.1047,72.1264 Q645.1047,70.8746 645.6326,70.2139 Q646.1605,69.5531 647.1633,69.5531 Q647.4455,69.5531 647.7045,69.6129 Q647.9635,69.6727 648.1893,69.7922 L648.1893,70.8813 Q647.9369,70.6488 647.6995,70.5409 Q647.4621,70.433 647.2098,70.433 Q646.6719,70.433 646.3979,70.8597 Q646.124,71.2863 646.124,72.1264 Q646.124,72.9631 646.3979,73.3897 Q646.6719,73.8164 647.2098,73.8164 Q647.4621,73.8164 647.6995,73.7085 Q647.9369,73.6006 648.1893,73.3682 Z " fill="#000000"/><text fill="#000000" font-family="sans-serif" font-size="5.6" lengthAdjust="spacing" textLength="12.8" x="652.8" y="74.1164">Area</text><line style="stroke:#181818;stroke-width:0.20000000000000004;" x1="641.6" x2="666.4" y1="78.4" y2="78.4"/><line style="stroke:#181818;stroke-width:0.20000000000000004;" x1="641.6" x2="666.4" y1="81.6" y2="81.6"/></g><!--MD5=[e200ba998893ef08a720b53d00a01334]
class AreaCode--><g id="elem_AreaCode"><rect codeLine="29" fill="#F1F1F1" height="19.2" id="AreaCode" rx="1" ry="1" style="stroke:#181818;stroke-width:0.20000000000000004;" width="40" x="614" y="108.8"/><ellipse cx="620" cy="115.2" fill="#ADD1B2" rx="4.4" ry="4.4" style="stroke:#181818;stroke-width:0.4000000000000001;"/><path d="M620.9893,117.6572 Q620.7568,117.7768 620.5012,117.8365 Q620.2455,117.8963 619.9633,117.8963 Q618.9605,117.8963 618.4326,117.2355 Q617.9047,116.5748 617.9047,115.3264 Q617.9047,114.0746 618.4326,113.4139 Q618.9605,112.7531 619.9633,112.7531 Q620.2455,112.7531 620.5045,112.8129 Q620.7635,112.8727 620.9893,112.9922 L620.9893,114.0813 Q620.7369,113.8488 620.4995,113.7409 Q620.2621,113.633 620.0098,113.633 Q619.4719,113.633 619.1979,114.0597 Q618.924,114.4863 618.924,115.3264 Q618.924,116.1631 619.1979,116.5897 Q619.4719,117.0164 620.0098,117.0164 Q620.2621,117.0164 620.4995,116.9085 Q620.7369,116.8006 620.9893,116.5682 Z " fill="#000000"/><text fill="#000000" font-family="sans-serif" font-size="5.6" lengthAdjust="spacing" textLength="27.2" x="625.6" y="117.3164">AreaCode</text><line style="stroke:#181818;stroke-width:0.20000000000000004;" x1="614.4" x2="653.6" y1="121.6" y2="121.6"/><line style="stroke:#181818;stroke-width:0.20000000000000004;" x1="614.4" x2="653.6" y1="124.8" y2="124.8"/></g><!--MD5=[da72108a2799498bcb8a04cc799d5a2a]
class AreaCodeM49--><g id="elem_AreaCodeM49"><rect codeLine="30" fill="#F1F1F1" height="19.2" id="AreaCodeM49" rx="1" ry="1" style="stroke:#181818;stroke-width:0.20000000000000004;" width="52" x="668" y="108.8"/><ellipse cx="674" cy="115.2" fill="#ADD1B2" rx="4.4" ry="4.4" style="stroke:#181818;stroke-width:0.4000000000000001;"/><path d="M674.9893,117.6572 Q674.7568,117.7768 674.5012,117.8365 Q674.2455,117.8963 673.9633,117.8963 Q672.9605,117.8963 672.4326,117.2355 Q671.9047,116.5748 671.9047,115.3264 Q671.9047,114.0746 672.4326,113.4139 Q672.9605,112.7531 673.9633,112.7531 Q674.2455,112.7531 674.5045,112.8129 Q674.7635,112.8727 674.9893,112.9922 L674.9893,114.0813 Q674.7369,113.8488 674.4995,113.7409 Q674.2621,113.633 674.0098,113.633 Q673.4719,113.633 673.1979,114.0597 Q672.924,114.4863 672.924,115.3264 Q672.924,116.1631 673.1979,116.5897 Q673.4719,117.0164 674.0098,117.0164 Q674.2621,117.0164 674.4995,116.9085 Q674.7369,116.8006 674.9893,116.5682 Z " fill="#000000"/><text fill="#000000" font-family="sans-serif" font-size="5.6" lengthAdjust="spacing" textLength="39.2" x="679.6" y="117.3164">AreaCodeM49</text><line style="stroke:#181818;stroke-width:0.20000000000000004;" x1="668.4" x2="719.6" y1="121.6" y2="121.6"/><line style="stroke:#181818;stroke-width:0.20000000000000004;" x1="668.4" x2="719.6" y1="124.8" y2="124.8"/></g><!--MD5=[b22213dc4c785bbb89e0857d0131c211]
class AreaName--><g id="elem_AreaName"><rect codeLine="31" fill="#F1F1F1" height="19.2" id="AreaName" rx="1" ry="1" style="stroke:#181818;stroke-width:0.20000000000000004;" width="41.2" x="734.2" y="108.8"/><ellipse cx="740.2" cy="115.2" fill="#ADD1B2" rx="4.4" ry="4.4" style="stroke:#181818;stroke-width:0.4000000000000001;"/><path d="M741.1893,117.6572 Q740.9568,117.7768 740.7012,117.8365 Q740.4455,117.8963 740.1633,117.8963 Q739.1605,117.8963 738.6326,117.2355 Q738.1047,116.5748 738.1047,115.3264 Q738.1047,114.0746 738.6326,113.4139 Q739.1605,112.7531 740.1633,112.7531 Q740.4455,112.7531 740.7045,112.8129 Q740.9635,112.8727 741.1893,112.9922 L741.1893,114.0813 Q740.9369,113.8488 740.6995,113.7409 Q740.4621,113.633 740.2098,113.633 Q739.6719,113.633 739.3979,114.0597 Q739.124,114.4863 739.124,115.3264 Q739.124,116.1631 739.3979,116.5897 Q739.6719,117.0164 740.2098,117.0164 Q740.4621,117.0164 740.6995,116.9085 Q740.9369,116.8006 741.1893,116.5682 Z " fill="#000000"/><text fill="#000000" font-family="sans-serif" font-size="5.6" lengthAdjust="spacing" textLength="28.4" x="745.8" y="117.3164">AreaName</text><line style="stroke:#181818;stroke-width:0.20000000000000004;" x1="734.6" x2="775" y1="121.6" y2="121.6"/><line style="stroke:#181818;stroke-width:0.20000000000000004;" x1="734.6" x2="775" y1="124.8" y2="124.8"/></g><!--MD5=[44a1b4afaef76c16e6c9ec4990ad0c8d]
class Item--><g id="elem_Item"><rect codeLine="63" fill="#F1F1F1" height="19.2" id="Item" rx="1" ry="1" style="stroke:#181818;stroke-width:0.20000000000000004;" width="24.8" x="478" y="65.6"/><ellipse cx="484" cy="72" fill="#ADD1B2" rx="4.4" ry="4.4" style="stroke:#181818;stroke-width:0.4000000000000001;"/><path d="M484.9893,74.4572 Q484.7568,74.5768 484.5012,74.6365 Q484.2455,74.6963 483.9633,74.6963 Q482.9605,74.6963 482.4326,74.0355 Q481.9047,73.3748 481.9047,72.1264 Q481.9047,70.8746 482.4326,70.2139 Q482.9605,69.5531 483.9633,69.5531 Q484.2455,69.5531 484.5045,69.6129 Q484.7635,69.6727 484.9893,69.7922 L484.9893,70.8813 Q484.7369,70.6488 484.4995,70.5409 Q484.2621,70.433 484.0098,70.433 Q483.4719,70.433 483.1979,70.8597 Q482.924,71.2863 482.924,72.1264 Q482.924,72.9631 483.1979,73.3897 Q483.4719,73.8164 484.0098,73.8164 Q484.2621,73.8164 484.4995,73.7085 Q484.7369,73.6006 484.9893,73.3682 Z " fill="#000000"/><text fill="#000000" font-family="sans-serif" font-size="5.6" lengthAdjust="spacing" textLength="12" x="489.6" y="74.1164">Item</text><line style="stroke:#181818;stroke-width:0.20000000000000004;" x1="478.4" x2="502.4" y1="78.4" y2="78.4"/><line style="stroke:#181818;stroke-width:0.20000000000000004;" x1="478.4" x2="502.4" y1="81.6" y2="81.6"/></g><!--MD5=[654cadcc7002408b9d51df2573dd0801]
class ItemCode--><g id="elem_ItemCode"><rect codeLine="33" fill="#F1F1F1" height="19.2" id="ItemCode" rx="1" ry="1" style="stroke:#181818;stroke-width:0.20000000000000004;" width="39.2" x="441.6" y="108.8"/><ellipse cx="447.6" cy="115.2" fill="#ADD1B2" rx="4.4" ry="4.4" style="stroke:#181818;stroke-width:0.4000000000000001;"/><path d="M448.5893,117.6572 Q448.3568,117.7768 448.1012,117.8365 Q447.8455,117.8963 447.5633,117.8963 Q446.5605,117.8963 446.0326,117.2355 Q445.5047,116.5748 445.5047,115.3264 Q445.5047,114.0746 446.0326,113.4139 Q446.5605,112.7531 447.5633,112.7531 Q447.8455,112.7531 448.1045,112.8129 Q448.3635,112.8727 448.5893,112.9922 L448.5893,114.0813 Q448.3369,113.8488 448.0995,113.7409 Q447.8621,113.633 447.6098,113.633 Q447.0719,113.633 446.7979,114.0597 Q446.524,114.4863 446.524,115.3264 Q446.524,116.1631 446.7979,116.5897 Q447.0719,117.0164 447.6098,117.0164 Q447.8621,117.0164 448.0995,116.9085 Q448.3369,116.8006 448.5893,116.5682 Z " fill="#000000"/><text fill="#000000" font-family="sans-serif" font-size="5.6" lengthAdjust="spacing" textLength="26.4" x="453.2" y="117.3164">ItemCode</text><line style="stroke:#181818;stroke-width:0.20000000000000004;" x1="442" x2="480.4" y1="121.6" y2="121.6"/><line style="stroke:#181818;stroke-width:0.20000000000000004;" x1="442" x2="480.4" y1="124.8" y2="124.8"/></g><!--MD5=[04dbcf0f606a6dc7cf31acb2c8515252]
class ItemCodeCPC--><g id="elem_ItemCodeCPC"><rect codeLine="34" fill="#F1F1F1" height="19.2" id="ItemCodeCPC" rx="1" ry="1" style="stroke:#181818;stroke-width:0.20000000000000004;" width="50.4" x="494.8" y="108.8"/><ellipse cx="500.8" cy="115.2" fill="#ADD1B2" rx="4.4" ry="4.4" style="stroke:#181818;stroke-width:0.4000000000000001;"/><path d="M501.7893,117.6572 Q501.5568,117.7768 501.3012,117.8365 Q501.0455,117.8963 500.7633,117.8963 Q499.7605,117.8963 499.2326,117.2355 Q498.7047,116.5748 498.7047,115.3264 Q498.7047,114.0746 499.2326,113.4139 Q499.7605,112.7531 500.7633,112.7531 Q501.0455,112.7531 501.3045,112.8129 Q501.5635,112.8727 501.7893,112.9922 L501.7893,114.0813 Q501.5369,113.8488 501.2995,113.7409 Q501.0621,113.633 500.8098,113.633 Q500.2719,113.633 499.9979,114.0597 Q499.724,114.4863 499.724,115.3264 Q499.724,116.1631 499.9979,116.5897 Q500.2719,117.0164 500.8098,117.0164 Q501.0621,117.0164 501.2995,116.9085 Q501.5369,116.8006 501.7893,116.5682 Z " fill="#000000"/><text fill="#000000" font-family="sans-serif" font-size="5.6" lengthAdjust="spacing" textLength="37.6" x="506.4" y="117.3164">ItemCodeCPC</text><line style="stroke:#181818;stroke-width:0.20000000000000004;" x1="495.2" x2="544.8" y1="121.6" y2="121.6"/><line style="stroke:#181818;stroke-width:0.20000000000000004;" x1="495.2" x2="544.8" y1="124.8" y2="124.8"/></g><!--MD5=[5c2f687bfb1bffdc24db74a639703f1f]
class ItemName--><g id="elem_ItemName"><rect codeLine="35" fill="#F1F1F1" height="19.2" id="ItemName" rx="1" ry="1" style="stroke:#181818;stroke-width:0.20000000000000004;" width="40.4" x="559.4" y="108.8"/><ellipse cx="565.4" cy="115.2" fill="#ADD1B2" rx="4.4" ry="4.4" style="stroke:#181818;stroke-width:0.4000000000000001;"/><path d="M566.3893,117.6572 Q566.1568,117.7768 565.9012,117.8365 Q565.6455,117.8963 565.3633,117.8963 Q564.3605,117.8963 563.8326,117.2355 Q563.3047,116.5748 563.3047,115.3264 Q563.3047,114.0746 563.8326,113.4139 Q564.3605,112.7531 565.3633,112.7531 Q565.6455,112.7531 565.9045,112.8129 Q566.1635,112.8727 566.3893,112.9922 L566.3893,114.0813 Q566.1369,113.8488 565.8995,113.7409 Q565.6621,113.633 565.4098,113.633 Q564.8719,113.633 564.5979,114.0597 Q564.324,114.4863 564.324,115.3264 Q564.324,116.1631 564.5979,116.5897 Q564.8719,117.0164 565.4098,117.0164 Q565.6621,117.0164 565.8995,116.9085 Q566.1369,116.8006 566.3893,116.5682 Z " fill="#000000"/><text fill="#000000" font-family="sans-serif" font-size="5.6" lengthAdjust="spacing" textLength="27.6" x="571" y="117.3164">ItemName</text><line style="stroke:#181818;stroke-width:0.20000000000000004;" x1="559.8" x2="599.4" y1="121.6" y2="121.6"/><line style="stroke:#181818;stroke-width:0.20000000000000004;" x1="559.8" x2="599.4" y1="124.8" y2="124.8"/></g><!--MD5=[95174e42ee347a14b6cb78d6855f19b5]
class Element--><g id="elem_Element"><rect codeLine="64" fill="#F1F1F1" height="19.2" id="Element" rx="1" ry="1" style="stroke:#181818;stroke-width:0.20000000000000004;" width="34.8" x="321" y="65.6"/><ellipse cx="327" cy="72" fill="#ADD1B2" rx="4.4" ry="4.4" style="stroke:#181818;stroke-width:0.4000000000000001;"/><path d="M327.9893,74.4572 Q327.7568,74.5768 327.5012,74.6365 Q327.2455,74.6963 326.9633,74.6963 Q325.9605,74.6963 325.4326,74.0355 Q324.9047,73.3748 324.9047,72.1264 Q324.9047,70.8746 325.4326,70.2139 Q325.9605,69.5531 326.9633,69.5531 Q327.2455,69.5531 327.5045,69.6129 Q327.7635,69.6727 327.9893,69.7922 L327.9893,70.8813 Q327.7369,70.6488 327.4995,70.5409 Q327.2621,70.433 327.0098,70.433 Q326.4719,70.433 326.1979,70.8597 Q325.924,71.2863 325.924,72.1264 Q325.924,72.9631 326.1979,73.3897 Q326.4719,73.8164 327.0098,73.8164 Q327.2621,73.8164 327.4995,73.7085 Q327.7369,73.6006 327.9893,73.3682 Z " fill="#000000"/><text fill="#000000" font-family="sans-serif" font-size="5.6" lengthAdjust="spacing" textLength="22" x="332.6" y="74.1164">Element</text><line style="stroke:#181818;stroke-width:0.20000000000000004;" x1="321.4" x2="355.4" y1="78.4" y2="78.4"/><line style="stroke:#181818;stroke-width:0.20000000000000004;" x1="321.4" x2="355.4" y1="81.6" y2="81.6"/></g><!--MD5=[90d210431e6b3a69b0213aeb6f5dd93e]
class ElementCode--><g id="elem_ElementCode"><rect codeLine="37" fill="#F1F1F1" height="19.2" id="ElementCode" rx="1" ry="1" style="stroke:#181818;stroke-width:0.20000000000000004;" width="49.2" x="313.8" y="108.8"/><ellipse cx="319.8" cy="115.2" fill="#ADD1B2" rx="4.4" ry="4.4" style="stroke:#181818;stroke-width:0.4000000000000001;"/><path d="M320.7893,117.6572 Q320.5568,117.7768 320.3012,117.8365 Q320.0455,117.8963 319.7633,117.8963 Q318.7605,117.8963 318.2326,117.2355 Q317.7047,116.5748 317.7047,115.3264 Q317.7047,114.0746 318.2326,113.4139 Q318.7605,112.7531 319.7633,112.7531 Q320.0455,112.7531 320.3045,112.8129 Q320.5635,112.8727 320.7893,112.9922 L320.7893,114.0813 Q320.5369,113.8488 320.2995,113.7409 Q320.0621,113.633 319.8098,113.633 Q319.2719,113.633 318.9979,114.0597 Q318.724,114.4863 318.724,115.3264 Q318.724,116.1631 318.9979,116.5897 Q319.2719,117.0164 319.8098,117.0164 Q320.0621,117.0164 320.2995,116.9085 Q320.5369,116.8006 320.7893,116.5682 Z " fill="#000000"/><text fill="#000000" font-family="sans-serif" font-size="5.6" lengthAdjust="spacing" textLength="36.4" x="325.4" y="117.3164">ElementCode</text><line style="stroke:#181818;stroke-width:0.20000000000000004;" x1="314.2" x2="362.6" y1="121.6" y2="121.6"/><line style="stroke:#181818;stroke-width:0.20000000000000004;" x1="314.2" x2="362.6" y1="124.8" y2="124.8"/></g><!--MD5=[8a1239f5351f64657abf616d2fde1ef3]
class ElementName--><g id="elem_ElementName"><rect codeLine="38" fill="#F1F1F1" height="19.2" id="ElementName" rx="1" ry="1" style="stroke:#181818;stroke-width:0.20000000000000004;" width="50.4" x="377.2" y="108.8"/><ellipse cx="383.2" cy="115.2" fill="#ADD1B2" rx="4.4" ry="4.4" style="stroke:#181818;stroke-width:0.4000000000000001;"/><path d="M384.1893,117.6572 Q383.9568,117.7768 383.7012,117.8365 Q383.4455,117.8963 383.1633,117.8963 Q382.1605,117.8963 381.6326,117.2355 Q381.1047,116.5748 381.1047,115.3264 Q381.1047,114.0746 381.6326,113.4139 Q382.1605,112.7531 383.1633,112.7531 Q383.4455,112.7531 383.7045,112.8129 Q383.9635,112.8727 384.1893,112.9922 L384.1893,114.0813 Q383.9369,113.8488 383.6995,113.7409 Q383.4621,113.633 383.2098,113.633 Q382.6719,113.633 382.3979,114.0597 Q382.124,114.4863 382.124,115.3264 Q382.124,116.1631 382.3979,116.5897 Q382.6719,117.0164 383.2098,117.0164 Q383.4621,117.0164 383.6995,116.9085 Q383.9369,116.8006 384.1893,116.5682 Z " fill="#000000"/><text fill="#000000" font-family="sans-serif" font-size="5.6" lengthAdjust="spacing" textLength="37.6" x="388.8" y="117.3164">ElementName</text><line style="stroke:#181818;stroke-width:0.20000000000000004;" x1="377.6" x2="427.2" y1="121.6" y2="121.6"/><line style="stroke:#181818;stroke-width:0.20000000000000004;" x1="377.6" x2="427.2" y1="124.8" y2="124.8"/></g><!--MD5=[3f021d779fcbffef0086984bda9b2b0e]
class ItemElementAgregateValue--><g id="elem_ItemElementAgregateValue"><rect codeLine="39" fill="#F1F1F1" height="19.2" id="ItemElementAgregateValue" rx="1" ry="1" style="stroke:#181818;stroke-width:0.20000000000000004;" width="87.2" x="700.8" y="65.6"/><ellipse cx="706.8" cy="72" fill="#ADD1B2" rx="4.4" ry="4.4" style="stroke:#181818;stroke-width:0.4000000000000001;"/><path d="M707.7893,74.4572 Q707.5568,74.5768 707.3012,74.6365 Q707.0455,74.6963 706.7633,74.6963 Q705.7605,74.6963 705.2326,74.0355 Q704.7047,73.3748 704.7047,72.1264 Q704.7047,70.8746 705.2326,70.2139 Q705.7605,69.5531 706.7633,69.5531 Q707.0455,69.5531 707.3045,69.6129 Q707.5635,69.6727 707.7893,69.7922 L707.7893,70.8813 Q707.5369,70.6488 707.2995,70.5409 Q707.0621,70.433 706.8098,70.433 Q706.2719,70.433 705.9979,70.8597 Q705.724,71.2863 705.724,72.1264 Q705.724,72.9631 705.9979,73.3897 Q706.2719,73.8164 706.8098,73.8164 Q707.0621,73.8164 707.2995,73.7085 Q707.5369,73.6006 707.7893,73.3682 Z " fill="#000000"/><text fill="#000000" font-family="sans-serif" font-size="5.6" lengthAdjust="spacing" textLength="74.4" x="712.4" y="74.1164">ItemElementAgregateValue</text><line style="stroke:#181818;stroke-width:0.20000000000000004;" x1="701.2" x2="787.6" y1="78.4" y2="78.4"/><line style="stroke:#181818;stroke-width:0.20000000000000004;" x1="701.2" x2="787.6" y1="81.6" y2="81.6"/></g><!--MD5=[fc5ecddd27ead815ef38af9cdc074fa0]
class ProductionYear--><g id="elem_ProductionYear"><rect codeLine="40" fill="#F1F1F1" height="19.2" id="ProductionYear" rx="1" ry="1" style="stroke:#181818;stroke-width:0.20000000000000004;" width="55.2" x="802" y="65.6"/><ellipse cx="808" cy="72" fill="#ADD1B2" rx="4.4" ry="4.4" style="stroke:#181818;stroke-width:0.4000000000000001;"/><path d="M808.9893,74.4572 Q808.7568,74.5768 808.5012,74.6365 Q808.2455,74.6963 807.9633,74.6963 Q806.9605,74.6963 806.4326,74.0355 Q805.9047,73.3748 805.9047,72.1264 Q805.9047,70.8746 806.4326,70.2139 Q806.9605,69.5531 807.9633,69.5531 Q808.2455,69.5531 808.5045,69.6129 Q808.7635,69.6727 808.9893,69.7922 L808.9893,70.8813 Q808.7369,70.6488 808.4995,70.5409 Q808.2621,70.433 808.0098,70.433 Q807.4719,70.433 807.1979,70.8597 Q806.924,71.2863 806.924,72.1264 Q806.924,72.9631 807.1979,73.3897 Q807.4719,73.8164 808.0098,73.8164 Q808.2621,73.8164 808.4995,73.7085 Q808.7369,73.6006 808.9893,73.3682 Z " fill="#000000"/><text fill="#000000" font-family="sans-serif" font-size="5.6" lengthAdjust="spacing" textLength="42.4" x="813.6" y="74.1164">ProductionYear</text><line style="stroke:#181818;stroke-width:0.20000000000000004;" x1="802.4" x2="856.8" y1="78.4" y2="78.4"/><line style="stroke:#181818;stroke-width:0.20000000000000004;" x1="802.4" x2="856.8" y1="81.6" y2="81.6"/></g><!--MD5=[ff3d20c1112759d46dde2fcead238479]
class Value--><g id="elem_Value"><rect codeLine="41" fill="#F1F1F1" height="19.2" id="Value" rx="1" ry="1" style="stroke:#181818;stroke-width:0.20000000000000004;" width="28" x="789.6" y="108.8"/><ellipse cx="795.6" cy="115.2" fill="#ADD1B2" rx="4.4" ry="4.4" style="stroke:#181818;stroke-width:0.4000000000000001;"/><path d="M796.5893,117.6572 Q796.3568,117.7768 796.1012,117.8365 Q795.8455,117.8963 795.5633,117.8963 Q794.5605,117.8963 794.0326,117.2355 Q793.5047,116.5748 793.5047,115.3264 Q793.5047,114.0746 794.0326,113.4139 Q794.5605,112.7531 795.5633,112.7531 Q795.8455,112.7531 796.1045,112.8129 Q796.3635,112.8727 796.5893,112.9922 L796.5893,114.0813 Q796.3369,113.8488 796.0995,113.7409 Q795.8621,113.633 795.6098,113.633 Q795.0719,113.633 794.7979,114.0597 Q794.524,114.4863 794.524,115.3264 Q794.524,116.1631 794.7979,116.5897 Q795.0719,117.0164 795.6098,117.0164 Q795.8621,117.0164 796.0995,116.9085 Q796.3369,116.8006 796.5893,116.5682 Z " fill="#000000"/><text fill="#000000" font-family="sans-serif" font-size="5.6" lengthAdjust="spacing" textLength="15.2" x="801.2" y="117.3164">Value</text><line style="stroke:#181818;stroke-width:0.20000000000000004;" x1="790" x2="817.2" y1="121.6" y2="121.6"/><line style="stroke:#181818;stroke-width:0.20000000000000004;" x1="790" x2="817.2" y1="124.8" y2="124.8"/></g><!--MD5=[4b7878ea256981c432ee8388bc9b8b8b]
class Year--><g id="elem_Year"><rect codeLine="42" fill="#F1F1F1" height="19.2" id="Year" rx="1" ry="1" style="stroke:#181818;stroke-width:0.20000000000000004;" width="25.2" x="831.8" y="108.8"/><ellipse cx="837.8" cy="115.2" fill="#ADD1B2" rx="4.4" ry="4.4" style="stroke:#181818;stroke-width:0.4000000000000001;"/><path d="M838.7893,117.6572 Q838.5568,117.7768 838.3012,117.8365 Q838.0455,117.8963 837.7633,117.8963 Q836.7605,117.8963 836.2326,117.2355 Q835.7047,116.5748 835.7047,115.3264 Q835.7047,114.0746 836.2326,113.4139 Q836.7605,112.7531 837.7633,112.7531 Q838.0455,112.7531 838.3045,112.8129 Q838.5635,112.8727 838.7893,112.9922 L838.7893,114.0813 Q838.5369,113.8488 838.2995,113.7409 Q838.0621,113.633 837.8098,113.633 Q837.2719,113.633 836.9979,114.0597 Q836.724,114.4863 836.724,115.3264 Q836.724,116.1631 836.9979,116.5897 Q837.2719,117.0164 837.8098,117.0164 Q838.0621,117.0164 838.2995,116.9085 Q838.5369,116.8006 838.7893,116.5682 Z " fill="#000000"/><text fill="#000000" font-family="sans-serif" font-size="5.6" lengthAdjust="spacing" textLength="12.4" x="843.4" y="117.3164">Year</text><line style="stroke:#181818;stroke-width:0.20000000000000004;" x1="832.2" x2="856.6" y1="121.6" y2="121.6"/><line style="stroke:#181818;stroke-width:0.20000000000000004;" x1="832.2" x2="856.6" y1="124.8" y2="124.8"/></g><!--MD5=[406c4444a069a16af705c5d01c6e51c3]
reverse link BSTInterface to BST--><g id="link_BSTInterface_BST"><path d="M206.912,41.416 C209.088,43.696 211.248,46.068 213.2,48.4 C217.756,53.84 222.32,60.38 225.76,65.588 " fill="none" id="BSTInterface-backto-BST" style="stroke:#181818;stroke-width:0.4000000000000001;stroke-dasharray:7.0,7.0;"/><polygon fill="none" points="204.872,43.336,201.224,35.688,208.844,39.392,204.872,43.336" style="stroke:#181818;stroke-width:0.4000000000000001;"/></g><!--MD5=[5e384fb0f915356e4e6bbdd3a6eb779e]
reverse link TwoDTreeInterface to TwoDTree--><g id="link_TwoDTreeInterface_TwoDTree"><path d="M38.228,43.512 C36.948,50.892 35.5,59.236 34.424,65.452 " fill="none" id="TwoDTreeInterface-backto-TwoDTree" style="stroke:#181818;stroke-width:0.4000000000000001;stroke-dasharray:7.0,7.0;"/><polygon fill="none" points="35.472,43.02,39.6,35.616,40.992,43.98,35.472,43.02" style="stroke:#181818;stroke-width:0.4000000000000001;"/></g><!--MD5=[89233d91de6ba2eee12fbaed92d82400]
reverse link BST to AVL--><g id="link_BST_AVL"><path codeLine="47" d="M239.288,92.228 C241.872,97.816 244.66,103.848 246.888,108.672 " fill="none" id="BST-backto-AVL" style="stroke:#181818;stroke-width:0.4000000000000001;"/><polygon fill="none" points="236.668,93.236,235.852,84.8,241.752,90.888,236.668,93.236" style="stroke:#181818;stroke-width:0.4000000000000001;"/></g><!--MD5=[44abf5e2c6094c9d6679c221eb28e6d0]
reverse link Area to AreaCode--><g id="link_Area_AreaCode"><path codeLine="49" d="M646.248,92.036 C643.584,97.68 640.7,103.792 638.4,108.672 " fill="none" id="Area-backto-AreaCode" style="stroke:#181818;stroke-width:0.4000000000000001;"/><polygon fill="none" points="643.716,90.84,649.66,84.8,648.78,93.232,643.716,90.84" style="stroke:#181818;stroke-width:0.4000000000000001;"/></g><!--MD5=[ee60d020d9cab99bfa38cc503ffe8838]
reverse link Area to AreaCodeM49--><g id="link_Area_AreaCodeM49"><path codeLine="50" d="M668.248,90.7 C673.904,96.696 680.232,103.404 685.2,108.672 " fill="none" id="Area-backto-AreaCodeM49" style="stroke:#181818;stroke-width:0.4000000000000001;"/><polygon fill="none" points="666.132,92.54,662.68,84.8,670.204,88.696,666.132,92.54" style="stroke:#181818;stroke-width:0.4000000000000001;"/></g><!--MD5=[f80090bd22951c241d06077a105b66e7]
reverse link Area to AreaName--><g id="link_Area_AreaName"><path codeLine="51" d="M674.276,84.128 C691.672,91.448 716.636,101.948 734.144,109.312 " fill="none" id="Area-backto-AreaName" style="stroke:#181818;stroke-width:0.4000000000000001;"/><polygon fill="none" points="673.156,86.696,666.868,81.012,675.328,81.532,673.156,86.696" style="stroke:#181818;stroke-width:0.4000000000000001;"/></g><!--MD5=[69ab79baa8b70d44944ca07906756c3c]
reverse link Element to ElementCode--><g id="link_Element_ElementCode"><path codeLine="52" d="M338.4,92.808 C338.4,98.232 338.4,104.016 338.4,108.672 " fill="none" id="Element-backto-ElementCode" style="stroke:#181818;stroke-width:0.4000000000000001;"/><polygon fill="none" points="335.6,92.8,338.4,84.8,341.2,92.8,335.6,92.8" style="stroke:#181818;stroke-width:0.4000000000000001;"/></g><!--MD5=[f65faf6f21edeb1201ad2f13e9f9f083]
reverse link Element to ElementName--><g id="link_Element_ElementName"><path codeLine="53" d="M358.956,89.22 C368.584,95.596 379.804,103.032 388.428,108.744 " fill="none" id="Element-backto-ElementName" style="stroke:#181818;stroke-width:0.4000000000000001;"/><polygon fill="none" points="357.408,91.552,352.288,84.8,360.504,86.884,357.408,91.552" style="stroke:#181818;stroke-width:0.4000000000000001;"/></g><!--MD5=[2bf2f01b0c3791e2333e78f6ce2ba8c8]
reverse link Item to ItemCode--><g id="link_Item_ItemCode"><path codeLine="54" d="M479.476,91.464 C475.484,97.26 471.1,103.628 467.624,108.672 " fill="none" id="Item-backto-ItemCode" style="stroke:#181818;stroke-width:0.4000000000000001;"/><polygon fill="none" points="477.22,89.8,484.064,84.8,481.832,92.976,477.22,89.8" style="stroke:#181818;stroke-width:0.4000000000000001;"/></g><!--MD5=[2966fec21658751b5d308bf25e442e26]
reverse link Item to ItemCodeCPC--><g id="link_Item_ItemCodeCPC"><path codeLine="55" d="M501.472,91.464 C505.52,97.26 509.968,103.628 513.488,108.672 " fill="none" id="Item-backto-ItemCodeCPC" style="stroke:#181818;stroke-width:0.4000000000000001;"/><polygon fill="none" points="499.108,92.964,496.824,84.8,503.7,89.756,499.108,92.964" style="stroke:#181818;stroke-width:0.4000000000000001;"/></g><!--MD5=[fe0345afe10f27e94369922c331ca292]
reverse link Item to ItemName--><g id="link_Item_ItemName"><path codeLine="56" d="M510.128,84.976 C524.996,92.044 545.288,101.692 560.1,108.732 " fill="none" id="Item-backto-ItemName" style="stroke:#181818;stroke-width:0.4000000000000001;"/><polygon fill="none" points="508.828,87.46,502.804,81.496,511.232,82.4,508.828,87.46" style="stroke:#181818;stroke-width:0.4000000000000001;"/></g><!--MD5=[a3e20424653901db09603fda23a5cd1f]
reverse link TwoDTree to TwoDNode--><g id="link_TwoDTree_TwoDNode"><path codeLine="58" d="M32.8,90.892 C32.8,96.84 32.8,103.46 32.8,108.672 " fill="none" id="TwoDTree-backto-TwoDNode" style="stroke:#181818;stroke-width:0.4000000000000001;"/><ellipse cx="32.8" cy="88" fill="#FFFFFF" rx="3.2" ry="3.2" style="stroke:#181818;stroke-width:0.4000000000000001;"/><line style="stroke:#181818;stroke-width:0.4000000000000001;" x1="32.8" x2="32.8" y1="91.2" y2="84.8"/><line style="stroke:#181818;stroke-width:0.4000000000000001;" x1="29.6" x2="36" y1="88" y2="88"/></g><!--MD5=[4c380999864324cf266182d4ae9efd2c]
reverse link BST to Node--><g id="link_BST_Node"><path codeLine="59" d="M224.792,90.324 C221.98,96.416 218.796,103.296 216.312,108.672 " fill="none" id="BST-backto-Node" style="stroke:#181818;stroke-width:0.4000000000000001;"/><ellipse cx="226.0041" cy="87.7041" fill="#FFFFFF" rx="3.2" ry="3.2" style="stroke:#181818;stroke-width:0.4000000000000001;"/><line style="stroke:#181818;stroke-width:0.4000000000000001;" x1="224.6602" x2="227.348" y1="90.6083" y2="84.8"/><line style="stroke:#181818;stroke-width:0.4000000000000001;" x1="223.1" x2="228.9082" y1="86.3602" y2="89.048"/></g><!--MD5=[a9c4a25e13e2fc0dbfafabaa7e27cfba]
reverse link Three to MiddleComparator--><g id="link_Three_MiddleComparator"><path codeLine="60" d="M101.244,41.624 C100.856,49.436 100.4,58.7 100.064,65.452 " fill="none" id="Three-backto-MiddleComparator" style="stroke:#181818;stroke-width:0.4000000000000001;"/><ellipse cx="101.3856" cy="38.8121" fill="#FFFFFF" rx="3.2" ry="3.2" style="stroke:#181818;stroke-width:0.4000000000000001;"/><line style="stroke:#181818;stroke-width:0.4000000000000001;" x1="101.2271" x2="101.544" y1="42.0082" y2="35.616"/><line style="stroke:#181818;stroke-width:0.4000000000000001;" x1="98.1895" x2="104.5816" y1="38.6536" y2="38.9705"/></g><!--MD5=[a54c8462ad99b3693f04ce1ec2ff19d1]
reverse link Three to RightComparator--><g id="link_Three_RightComparator"><path codeLine="61" d="M115.176,39.676 C117.8,41.776 120.66,43.736 123.6,45.2 C129.78,48.276 132.476,45.632 138.8,48.4 C148.596,52.684 158.404,59.792 165.488,65.552 " fill="none" id="Three-backto-RightComparator" style="stroke:#181818;stroke-width:0.4000000000000001;"/><ellipse cx="113.0075" cy="37.7875" fill="#FFFFFF" rx="3.2" ry="3.2" style="stroke:#181818;stroke-width:0.4000000000000001;"/><line style="stroke:#181818;stroke-width:0.4000000000000001;" x1="115.4189" x2="110.596" y1="39.8911" y2="35.684"/><line style="stroke:#181818;stroke-width:0.4000000000000001;" x1="110.9039" x2="115.111" y1="40.199" y2="35.3761"/></g><!--MD5=[1781acdf889bda983bd16575c6daf271]
reverse link DataTypeInterface to Area--><g id="link_DataTypeInterface_Area"><path d="M299.356,30.192 C340.876,34.144 408.216,40.416 466.4,45.2 C485.764,46.792 490.728,45.932 510,48.4 C558.784,54.644 616.092,66.532 641.164,71.964 " fill="none" id="DataTypeInterface-backto-Area" style="stroke:#181818;stroke-width:0.4000000000000001;stroke-dasharray:7.0,7.0;"/><polygon fill="none" points="298.98,32.968,291.28,29.42,299.512,27.396,298.98,32.968" style="stroke:#181818;stroke-width:0.4000000000000001;"/></g><!--MD5=[d6e055318ccbe7dafd2d94b4ec3c1327]
reverse link DataTypeInterface to Item--><g id="link_DataTypeInterface_Item"><path d="M299.18,34.632 C352.368,45.804 444.604,65.18 477.932,72.18 " fill="none" id="DataTypeInterface-backto-Item" style="stroke:#181818;stroke-width:0.4000000000000001;stroke-dasharray:7.0,7.0;"/><polygon fill="none" points="298.568,37.364,291.312,32.976,299.716,31.884,298.568,37.364" style="stroke:#181818;stroke-width:0.4000000000000001;"/></g><!--MD5=[99759d56ded04454534a798f9159b9d9]
reverse link DataTypeInterface to Element--><g id="link_DataTypeInterface_Element"><path d="M283.22,39.768 C288,42.58 292.98,45.556 297.6,48.4 C306.58,53.928 316.52,60.352 324.336,65.48 " fill="none" id="DataTypeInterface-backto-Element" style="stroke:#181818;stroke-width:0.4000000000000001;stroke-dasharray:7.0,7.0;"/><polygon fill="none" points="281.692,42.116,276.196,35.664,284.516,37.28,281.692,42.116" style="stroke:#181818;stroke-width:0.4000000000000001;"/></g><!--MD5=[37eccf81cc3a9ff89b34f8504ce7ae5d]
@startuml
'https://plantuml.com/class-diagram


package customExceptions{
class AreaNotFoundException
}

package dataStructures{
class AVL
class BST
class Node
interface BSTInterface
interface DataTypeInterface
class Pair
class Three
class MiddleComparator
class RightComparator
class TwoDTree
class TwoDNode
interface TwoDTreeInterface
}

package fileReaderUtils{
class FastReader
class ReadDataFromFiles
}
package model{
class Area
class AreaCode
class AreaCodeM49
class AreaName
class Item
class ItemCode
class ItemCodeCPC
class ItemName
class Element
class ElementCode
class ElementName
class ItemElementAgregateValue
class ProductionYear
class Value
class Year
}

class BST implements BSTInterface
class TwoDTree implements TwoDTreeInterface
BST<|- -AVL

Area<|- -AreaCode
Area<|- -AreaCodeM49
Area<|- -AreaName
Element<|- -ElementCode
Element<|- -ElementName
Item<|- -ItemCode
Item<|- -ItemCodeCPC
Item<|- -ItemName

TwoDTree +- -TwoDNode
BST +- -Node
Three +- - MiddleComparator
Three +- - RightComparator
class Area implements DataTypeInterface
class Item implements DataTypeInterface
class Element implements DataTypeInterface

@enduml

@startuml


package customExceptions{
class AreaNotFoundException
}

package dataStructures{
class AVL
class BST
class Node
interface BSTInterface
interface DataTypeInterface
class Pair
class Three
class MiddleComparator
class RightComparator
class TwoDTree
class TwoDNode
interface TwoDTreeInterface
}

package fileReaderUtils{
class FastReader
class ReadDataFromFiles
}
package model{
class Area
class AreaCode
class AreaCodeM49
class AreaName
class Item
class ItemCode
class ItemCodeCPC
class ItemName
class Element
class ElementCode
class ElementName
class ItemElementAgregateValue
class ProductionYear
class Value
class Year
}

class BST implements BSTInterface
class TwoDTree implements TwoDTreeInterface
BST<|- -AVL

Area<|- -AreaCode
Area<|- -AreaCodeM49
Area<|- -AreaName
Element<|- -ElementCode
Element<|- -ElementName
Item<|- -ItemCode
Item<|- -ItemCodeCPC
Item<|- -ItemName

TwoDTree +- -TwoDNode
BST +- -Node
Three +- - MiddleComparator
Three +- - RightComparator
class Area implements DataTypeInterface
class Item implements DataTypeInterface
class Element implements DataTypeInterface

@enduml

PlantUML version 1.2022.5(Sat Apr 30 11:55:52 WEST 2022)
(GPL source distribution)
Java Runtime: OpenJDK Runtime Environment
JVM: OpenJDK 64-Bit Server VM
Default Encoding: UTF-8
Language: pt
Country: PT
--></g></svg>